<?xml version="1.0" encoding="UTF-8"?>
<!DOCTYPE svg PUBLIC "-//W3C//DTD SVG 1.1//EN" "http://www.w3.org/Graphics/SVG/1.1/DTD/svg11.dtd">
<!-- Creator: CorelDRAW -->
<svg xmlns="http://www.w3.org/2000/svg" xml:space="preserve" width="7.9375mm" height="7.9375mm" version="1.1" style="shape-rendering:geometricPrecision; text-rendering:geometricPrecision; image-rendering:optimizeQuality; fill-rule:evenodd; clip-rule:evenodd"
viewBox="0 0 183.17 183.17"
 xmlns:xlink="http://www.w3.org/1999/xlink"
 xmlns:xodm="http://www.corel.com/coreldraw/odm/2003">
 <defs>
  <style type="text/css">
   <![CDATA[
    .fil0 {fill:#9D9E9E}
   ]]>
  </style>
 </defs>
 <g id="Layer_x0020_1">
  <metadata id="CorelCorpID_0Corel-Layer"/>
  <path id="Fill-1" class="fil0" d="M120.09 51c0,-11.22 -13.63,-20.31 -30.45,-20.31 -3.75,0 -7.34,0.45 -10.66,1.28l-9.94 -5.65 22.55 -13.02 64.88 37.47c4.93,-2.85 9.35,-5.4 12.93,-7.47 -16.17,-25.99 -44.96,-43.31 -77.81,-43.31 -32.8,0 -61.57,17.27 -77.74,43.2 3.72,2.15 8.14,4.7 12.99,7.5l20.08 -11.6 12.99 7.53c-0.47,1.41 -0.72,2.87 -0.72,4.38 0,11.21 13.63,20.31 30.45,20.31 16.82,0 30.45,-9.09 30.45,-20.31zm52.35 -2.42l-12.97 7.49 0 23.45 -14.15 8.03c-1.03,-1.2 -2.23,-2.23 -3.61,-3.03 -9.7,-5.64 -24.4,1.59 -32.86,16.14 -8.44,14.55 -7.43,30.91 2.26,36.55 9.69,5.63 24.4,-1.6 32.84,-16.14 1.83,-3.14 3.21,-6.37 4.16,-9.56l11.36 -6.58 0 26.01 -64.68 37.36 0 14.86c49.09,-1.68 88.38,-42.01 88.38,-91.54 0,-15.56 -3.89,-30.2 -10.73,-43.03zm-101.3 89.69c0.63,-0.26 1.24,-0.54 1.83,-0.9 9.69,-5.64 10.71,-21.99 2.26,-36.54 -8.45,-14.54 -23.16,-21.77 -32.85,-16.14 -9.7,5.63 -10.7,21.99 -2.26,36.54 1.25,2.14 2.62,4.11 4.1,5.91l0 15.63 -20.53 -11.85 0 -75.01 -12.91 -7.46c-6.88,12.86 -10.79,27.54 -10.79,43.15 0,49.63 39.46,90.01 88.7,91.55l0 -14.7 -17.55 -10.14 0 -20.06z"/>
 </g>
</svg>
