<svg viewBox="0 0 512 512" xmlns="http://www.w3.org/2000/svg" width="22" height="22">
<path d="M349.33 69.33H162.67C107.2 69.33 64 112.53 64 168v184c0 55.47 43.2 98.67 98.67 98.67h186.66C404.8 450.67 448 407.47 448 352V168c0-55.47-43.2-98.67-98.67-98.67z" fill="#7F7F7F"></path>
<path d="M256 164c-50.73 0-92 41.27-92 92s41.27 92 92 92 92-41.27 92-92-41.27-92-92-92zm0 152c-33.17 0-60-26.83-60-60s26.83-60 60-60 60 26.83 60 60-26.83 60-60 60z" fill="#CACACA"></path>
<circle cx="346" cy="166" r="20" fill="#CACACA"></circle>
</svg>
