<svg xmlns="http://www.w3.org/2000/svg" viewBox="0 0 448 512" width="15" height="15">
<path fill="#7F7F7F" d="M100.28 448H7.4V148.9h92.88zM53.79 108.1C24.09 108.1 0 83.53 0 54c0-29.78 24.35-54 54.23-54 29.69 0 53.79 24.22 53.79 54 0 29.53-24.09 54.1-54.23 54.1z"></path>
<path fill="#7F7F7F" d="M447.9 448h-92.68V302.4c0-34.7-12.41-58.4-43.33-58.4-23.63 0-37.63 15.9-43.8 31.3-2.27 5.5-2.84 13.1-2.84 20.8V448h-92.68s1.24-236.2 0-260.7h92.68v36.9c12.32-18.9 34.3-45.8 83.54-45.8 61 0 107 39.8 107 125.4V448z"></path>
</svg>
